# xmcd
#
# Track frame offsets:
#	150
#	15890
#	32278
#	47475
#	62254
#	79025
#	93557
#	109148
#	123969
#	140178
#	156779
#	172911
#	187995
#	202440
#	217390
#	233286
#	247351
#	262822
#	277678
#	292435
#	307548
#	321991
#
# Disc length: 4489 seconds
#
# Revision: 1
# Processed by: cddbd v1.5.2PL0 Copyright (c) Steve Scherf et al.
# Submitted via: EasyCDDAExtractor 7.0.5.1
#
DISCID=2f118716
DTITLE=Σωτηρία Μπέλλου - Τα αυθεντικά
DYEAR=2003
DGENRE=Ethnic
TTITLE0=Με πήρε το ξημέρωμα στους δρόμους
TTITLE1=Φτρωχέ διαβάτη
TTITLE2=Κατσιβέλα
TTITLE3=Το λαϊκό τσιγάρο
TTITLE4=Ρέστοι και μπατήρηδες
TTITLE5=Απόψε θα πεθάνει ο Χάρος
TTITLE6=Δικάστε με, δικάστε με
TTITLE7=Ο ναύτης
TTITLE8=Είσαι μεγάλος γόης
TTITLE9=Γράμμα θα στείλω στο Θεό
TTITLE10=Μες στα βαριά μεσάνυχτα
TTITLE11=Μια φορά στον κόσμο ζούμε
TTITLE12=Στερνή μου γνώση να σ' είχα πρώτα
TTITLE13=Ένα κι ένα κάνουν δύο
TTITLE14=Μια χαραυγή συννεφιασμένη
TTITLE15=Έχεις δίκιο
TTITLE16=Τύχη γιατί με κυνηγάς
TTITLE17=Ν' αλλάξεις το βιολί
TTITLE18=Θέλω κρασί πολύ να πιώ
TTITLE19=Είσαι 'σύ ο άνθρωπός μου
TTITLE20=’σε με, άσε με
TTITLE21=Είπα να σβήσω τα παλιά
EXTD=
EXTT0=
EXTT1=
EXTT2=
EXTT3=
EXTT4=
EXTT5=
EXTT6=
EXTT7=
EXTT8=
EXTT9=
EXTT10=
EXTT11=
EXTT12=
EXTT13=
EXTT14=
EXTT15=
EXTT16=
EXTT17=
EXTT18=
EXTT19=
EXTT20=
EXTT21=
PLAYORDER=
